<?xml version="1.0" encoding="UTF-8"?>
<svg xmlns="http://www.w3.org/2000/svg" viewBox="0 0 512 512" width="512" height="512"><g id="solid"><path d="M48,109H272a4,4,0,0,0,1.789-7.578l-21.06-10.529a32.906,32.906,0,0,1-14.622-14.622,20.971,20.971,0,0,0-33.586-5.45,4.519,4.519,0,0,1-6.959-.69l-.771-1.155A35.8,35.8,0,0,0,166.939,53a34.039,34.039,0,0,0-27.1,13.552l-5.048,6.731a10.438,10.438,0,0,1-15.73,1.118A18.316,18.316,0,0,0,106.02,69h-1.933a18.429,18.429,0,0,0-9.664,2.735L45.9,101.593A4,4,0,0,0,48,109Z"/><path d="M343.188,106.089A4,4,0,0,0,347.036,109H468.1a4,4,0,0,0,1.789-7.578l-11.382-5.691a15.931,15.931,0,0,1-7.081-7.08,13.171,13.171,0,0,0-21.1-3.423.59.59,0,0,1-.489.174.583.583,0,0,1-.445-.267l-.416-.624a21.185,21.185,0,0,0-17.663-9.453,20.245,20.245,0,0,0-16.119,8.06l-2.727,3.637a3.8,3.8,0,0,1-5.732.408,11.72,11.72,0,0,0-8.346-3.457h-1.044a11.8,11.8,0,0,0-6.187,1.75l-26.223,16.137A4,4,0,0,0,343.188,106.089Z"/><path d="M306.443,282.144A4,4,0,0,0,302.9,280h-192a4,4,0,0,0-3.543,2.144l-88,168A4,4,0,0,0,22.9,456H320.42l2.14,17.08a3.991,3.991,0,0,0,3.97,3.51,4.253,4.253,0,0,0,1.22-.19l64.37-20.59a4,4,0,0,0,2.32-5.67ZM298.9,448H221.51L298.9,300.26Zm31,19.31L309.62,305.45l75.53,144.19Z"/><path d="M460.646,193.37A4.171,4.171,0,0,0,463.823,192a4.009,4.009,0,0,0,.067-5.169l-52.8-64.17a4,4,0,0,0-6.18,0l-52.8,64.17a4.009,4.009,0,0,0,.067,5.169,4.171,4.171,0,0,0,3.177,1.371H378.82l-44.26,51.86a4,4,0,0,0-.011,5.188,4.146,4.146,0,0,0,3.2,1.412H363.01L332,290.6l-31.01-38.77h25.263a4.146,4.146,0,0,0,3.2-1.412,4,4,0,0,0-.011-5.188l-44.26-51.86h23.466A4.171,4.171,0,0,0,311.823,192a4.009,4.009,0,0,0,.067-5.169l-52.8-64.17a4,4,0,0,0-6.18,0l-52.8,64.17a4.009,4.009,0,0,0,.067,5.169,4.171,4.171,0,0,0,3.177,1.371H226.82l-44.26,51.86a4,4,0,0,0-.011,5.188,4.146,4.146,0,0,0,3.2,1.412H211.01L200.077,265.5A4,4,0,0,0,203.2,272H252V136a4,4,0,0,1,8,0V272h47.74a4,4,0,0,1,3.54,2.14l20.8,39.716A4,4,0,0,0,335.621,316H404v51.829a4.115,4.115,0,0,0,3.609,4.152A4,4,0,0,0,412,368V316h84a4.007,4.007,0,0,0,3.823-2.806,4.146,4.146,0,0,0-.8-3.812L452.99,251.83h25.263a4.146,4.146,0,0,0,3.2-1.412,4,4,0,0,0-.011-5.188l-44.26-51.86ZM412,308h-8V136a4,4,0,0,1,8,0Z"/><path d="M81.713,313.856,100,278.933V136a4,4,0,0,1,8,0V272h48.8a4,4,0,0,0,3.123-6.5L148.99,251.83h25.263a4.146,4.146,0,0,0,3.2-1.412,4,4,0,0,0-.011-5.188l-44.26-51.86h23.466A4.171,4.171,0,0,0,159.823,192a4.009,4.009,0,0,0,.067-5.169l-52.8-64.17a4,4,0,0,0-6.18,0l-52.8,64.17A4.009,4.009,0,0,0,48.177,192a4.171,4.171,0,0,0,3.177,1.371H74.82L30.56,245.23a4,4,0,0,0-.011,5.188,4.146,4.146,0,0,0,3.2,1.412H59.01L12.974,309.382a4.146,4.146,0,0,0-.8,3.812A4.007,4.007,0,0,0,16,316H78.169A4,4,0,0,0,81.713,313.856Z"/><path d="M479.2,449.6A52.264,52.264,0,0,0,500,408v-1.12a13.529,13.529,0,0,0-9.26-12.85l-7.03-2.34a5.556,5.556,0,0,1-3.21-7.75,13.522,13.522,0,0,0-2.54-15.63A33.829,33.829,0,0,1,468,344.25V336a4,4,0,0,0-6.83-2.83l-19.46,19.46A19.379,19.379,0,0,0,436,366.42a11.452,11.452,0,0,1-6.36,10.29,17.352,17.352,0,0,0-9.64,15.6.71.71,0,0,1-.36.64.687.687,0,0,1-.73.03l-9.12-4.56A4.007,4.007,0,0,0,404,392v23.03A45.013,45.013,0,0,0,428.34,455l-15.07,14.08a4,4,0,1,0,5.46,5.84l17.84-16.65c.82.23,1.66.44,2.5.63l-2.99,14.46a4,4,0,0,0,3.11,4.72,3.793,3.793,0,0,0,.81.09,4,4,0,0,0,3.92-3.2l3.1-15.02c.65.03,1.3.05,1.95.05a49.357,49.357,0,0,0,12.8-1.72l15.3,16.45A4.018,4.018,0,0,0,480,476a3.952,3.952,0,0,0,2.72-1.07,4.011,4.011,0,0,0,.21-5.66l-13.01-13.98a48.9,48.9,0,0,0,8.5-5.11Zm-9.73-17.25-3.84,1.73a35.435,35.435,0,0,1-5.14,1.85l6.24-5.83a4,4,0,1,0-5.46-5.84l-8.53,7.96,3.18-15.41a4,4,0,1,0-7.84-1.62l-2.81,13.62-7.01-7.54a4,4,0,0,0-5.86,5.46l8.62,9.25a.06.06,0,0,1-.04-.01,17.732,17.732,0,0,1-11.02-9.09,18.031,18.031,0,0,1-1.96-8.15v-5.76a19.467,19.467,0,0,0,20.92-21.82,15.083,15.083,0,0,1,2.9-10.92l2.42-3.21,2.71,10.31a60.614,60.614,0,0,0,11.98,23.23c.07.09.16.18.24.27l3.57,3.57a11.078,11.078,0,0,1-3.27,17.95Z"/><path d="M312,108a44.072,44.072,0,0,0,35.959-18.644,4,4,0,0,0-4.133-6.211A36.024,36.024,0,0,1,300,48a35.8,35.8,0,0,1,6.578-20.744,4,4,0,0,0-4.134-6.211A44,44,0,0,0,312,108Z"/></g></svg>
