<?xml version="1.0" encoding="UTF-8"?>
<svg xmlns="http://www.w3.org/2000/svg" viewBox="0 0 512 512" width="512" height="512"><g id="solid"><path d="M484.55,124.04l-41.127-5.68c7.621-18.169,13.91-35.942,13.91-45.121a44,44,0,1,0-88,0c0,7.687,4.413,21.4,10.323,36.331l-11.106-1.53a3.828,3.828,0,0,0-1.39.05L256,131.91,144.84,108.09a3.828,3.828,0,0,0-1.39-.05l-116,16A3.99,3.99,0,0,0,24,128V416a3.988,3.988,0,0,0,4.55,3.96l115.3-15.9,111.31,23.85a3.965,3.965,0,0,0,1.68,0l111.31-23.85,115.3,15.9A3.988,3.988,0,0,0,488,416V128A3.99,3.99,0,0,0,484.55,124.04Zm-107.217-50.8a36,36,0,1,1,72,0c0,15.686-23.4,65.868-36,91.132C400.738,139.107,377.333,88.925,377.333,73.239ZM364,116.95l4.15-.89,3.85.53v7.81l-2.99-.45a4.049,4.049,0,0,0-1.43.05l-3.58.77Zm8,115.79v26.37q-3.975.945-8,1.79V234.77C366.68,234.13,369.34,233.45,372,232.74Zm-8-6.205q-11.1,2.734-22.4,4.676A93.268,93.268,0,0,0,331.2,213.6a4,4,0,0,0-6.4,4.8q2.049,2.732,3.861,5.6h-8.587a93.223,93.223,0,0,0-6.767-10.4,4,4,0,0,0-6.4,4.8,85.293,85.293,0,0,1,9.539,16.176c-10,.943-20.151,1.424-30.266,1.424H260V155.23l104-22.28ZM331.815,264H341.7c.177,2.641.224,5.294.155,7.951H331.96Q332.056,267.965,331.815,264Zm7.267-16q1.038,3.957,1.693,8h-9.794q-.6-4.034-1.549-8Zm-11.933-8q-1.361-4.064-3.1-8h9.078a85.3,85.3,0,0,1,3.433,8ZM252,139.23l3.16.68a3.965,3.965,0,0,0,1.68,0l3.16-.68v7.82l-4,.86-4-.86ZM260,244v25.39q-4.005.3-8,.67V244Zm-41.067-29.065A129.753,129.753,0,0,0,235.981,151.8l.009,0L252,155.23V236H231.16a14.136,14.136,0,0,1-14.11-14.1A13.816,13.816,0,0,1,218.933,214.935ZM203.791,144.9a121.409,121.409,0,0,1-20.21,60.513A38.738,38.738,0,0,1,155.989,222.4l-7.989.969V132.95l55.79,11.95ZM140,116.59l3.85-.53,4.15.89v7.82l-3.58-.77a4.041,4.041,0,0,0-1.43-.05l-2.99.45Zm8,114.84v59.98c-2.68.86-5.34,1.75-8,2.67V232.39ZM52,145.59l88-13.11v91.858L52,235.006Zm0,198.223a475.027,475.027,0,0,1,88-41.258v52.632c-.072-.038-.134-.087-.209-.121a54.806,54.806,0,0,0-8.12-2.9,4,4,0,0,0-2.09,7.722,46.785,46.785,0,0,1,6.93,2.478,3.944,3.944,0,0,0,3.489-.112V380.7L52,393.8Zm96,52.957-3.16-.68a3.828,3.828,0,0,0-1.39-.05l-3.45.48v-7.73l4.29-.64,3.71.8Zm0-27.176,1.533,1.169a54.813,54.813,0,0,0,4.945,3.359,4,4,0,1,0,4.126-6.853,46.644,46.644,0,0,1-4.219-2.868l-1.954-1.49a4,4,0,0,0-4.431-.28v-62.79q9.1-3,18.326-5.644A475.363,475.363,0,0,1,252,278.11V403.05L148,380.77ZM260,419.05l-4,.86-4-.86v-7.82l3.16.68a3.965,3.965,0,0,0,1.68,0l3.16-.68Zm0-27.632,4.157.489a4.192,4.192,0,0,0,.472.028,4,4,0,0,0,.462-7.974l-5.091-.6V277.425q18.214-1.406,36.53-1.425c9.049,0,18.21-.4,27.306-1.148a85.178,85.178,0,0,1-1.5,11.587l-.155.777a4,4,0,1,0,7.844,1.568l.156-.776q.8-4.015,1.241-8.057h9.844q-.393,3.25-1.037,6.488l-.155.777a4,4,0,1,0,7.844,1.568l.156-.776a93.317,93.317,0,0,0,1.783-16.345q7.11-1.152,14.139-2.6V380.77L260,403.05Zm112,5.1-3.45-.48a3.828,3.828,0,0,0-1.39.05l-3.16.68v-7.82l3.71-.8,4.29.64Zm88-2.72-88-13.1V267.309a331.066,331.066,0,0,0,88-34.25Zm0-207.145-21.6,11.461A324.194,324.194,0,0,1,372,224.449V177.8l3.7,1.8a4,4,0,0,0,3.493-7.2L372,168.91V132.49l18.62,2.78h.012c3.2,7.084,6.373,13.816,9.185,19.665a22.76,22.76,0,1,0,27.031,0c1.962-4.081,4.1-8.589,6.3-13.35h0l26.85,4Z"/><circle cx="413.333" cy="73.239" r="24"/><path d="M102.291,158.309a4,4,0,0,0-7.249,0l-18.667,40A4,4,0,0,0,80,204H94.67v12a4,4,0,0,0,8,0V204h14.663a4,4,0,0,0,3.625-5.691Z"/><path d="M392,308h14.663v12a4,4,0,0,0,8,0V308h14.67a4,4,0,0,0,3.551-5.841l-18.667-36a4,4,0,0,0-7.1,0l-18.666,36A4,4,0,0,0,392,308Z"/><path d="M285.949,385.761a20.146,20.146,0,0,1-2.741.189H283.2a20.036,20.036,0,0,1-2.337-.137L279,385.594a4,4,0,0,0-.933,7.946l1.867.219c1.084.127,2.214.159,3.28.191a28.058,28.058,0,0,0,3.839-.265,4,4,0,0,0-1.1-7.924Z"/><path d="M306.071,374.352a4,4,0,0,0-5.452,1.505,19.58,19.58,0,0,1-4.187,5.118,4,4,0,0,0,5.251,6.035,27.534,27.534,0,0,0,5.894-7.206A4,4,0,0,0,306.071,374.352Z"/><path d="M303.837,352.925a4,4,0,0,0-2.153,5.231,20.026,20.026,0,0,1,1.5,6.468,4,4,0,0,0,3.988,3.749c.084,0,.169,0,.254-.008a4,4,0,0,0,3.742-4.242,27.993,27.993,0,0,0-2.1-9.045A4,4,0,0,0,303.837,352.925Z"/><path d="M299.779,348.391a4,4,0,0,0-.759-5.605,3.382,3.382,0,0,1-1.388-2.78,3.716,3.716,0,0,1,.038-.524,4,4,0,1,0-7.92-1.131,11.772,11.772,0,0,0-.118,1.66,11.406,11.406,0,0,0,4.542,9.14,4,4,0,0,0,5.605-.76Z"/><path d="M243.24,381.4l-7.945-.934a4,4,0,0,0-.933,7.946l7.946.933a4.161,4.161,0,0,0,.471.028,4,4,0,0,0,.461-7.973Z"/><path d="M339.4,294.686a3.993,3.993,0,0,0-4.376,3.585,32.168,32.168,0,0,1-1.477,6.945,4,4,0,1,0,7.593,2.521,40.162,40.162,0,0,0,1.844-8.675A4,4,0,0,0,339.4,294.686Z"/><path d="M327.454,315.981a32.129,32.129,0,0,1-5.185,4.848,4,4,0,1,0,4.783,6.412,40.2,40.2,0,0,0,6.477-6.054,4,4,0,1,0-6.075-5.206Z"/><path d="M311.117,326.172q-.9.234-1.831.417l-5.779,1.139a4,4,0,1,0,1.547,7.848l5.779-1.138c.761-.15,1.529-.325,2.282-.52a4,4,0,1,0-2-7.746Z"/><path d="M199.541,376.264l-7.945-.933a4,4,0,1,0-.934,7.945l7.946.933a3.941,3.941,0,0,0,.471.028,4,4,0,0,0,.462-7.973Z"/><path d="M177.692,373.7l-.436-.052a46.9,46.9,0,0,1-6.833-1.324,4,4,0,1,0-2.1,7.719,54.983,54.983,0,0,0,8,1.551l.436.051a4,4,0,1,0,.935-7.945Z"/><path d="M93.8,355.594a55.438,55.438,0,0,0-5.255,2.872,4,4,0,1,0,4.212,6.8,47.173,47.173,0,0,1,4.492-2.455,4,4,0,1,0-3.449-7.219Z"/><path d="M116.783,350.263h-.046a54.9,54.9,0,0,0-8.587.777,4,4,0,1,0,1.346,7.885,47.012,47.012,0,0,1,7.332-.662,4,4,0,0,0-.045-8Z"/><path d="M221.391,378.83l-7.946-.934a4,4,0,0,0-.933,7.946l7.946.933a4.161,4.161,0,0,0,.471.028,4,4,0,0,0,.462-7.973Z"/><circle cx="70.076" cy="368" r="13.826"/><path d="M329.5,157.64a19.718,19.718,0,0,1,3.81,1.386l2.8,1.36a4,4,0,0,0,3.493-7.2l-2.8-1.359a27.7,27.7,0,0,0-5.356-1.949,4,4,0,0,0-1.947,7.76Z"/><path d="M348.711,166.5l7.2,3.493a4,4,0,0,0,3.493-7.2l-7.2-3.493a4,4,0,0,0-3.493,7.2Z"/><path d="M300.938,181.622c.044,0,.088,0,.133,0a4,4,0,0,0,3.867-4.129q-.01-.315-.01-.628a19.883,19.883,0,0,1,.91-5.936,4,4,0,1,0-7.635-2.386,27.83,27.83,0,0,0-1.275,8.322c0,.3,0,.593.014.89A4,4,0,0,0,300.938,181.622Z"/><path d="M309.749,162.3a3.984,3.984,0,0,0,2.515-.892,19.355,19.355,0,0,1,5.761-3.216,4,4,0,0,0-2.66-7.545,27.335,27.335,0,0,0-8.136,4.544,4,4,0,0,0,2.52,7.109Z"/><path d="M308.9,188.642l-.237-.322a4,4,0,0,0-6.482,4.688l4.838,6.459a4,4,0,1,0,6.4-4.8Z"/><path d="M243.272,354.3a4,4,0,0,0,.492-3.654l-16-44.46a4,4,0,0,0-7.528,0l-16,44.46A4,4,0,0,0,208,356h12v12.54a4,4,0,0,0,8,0V356h12A4,4,0,0,0,243.272,354.3Z"/><path d="M432.236,318.646l-16,44.459A4,4,0,0,0,420,368.46h12V381a4,4,0,0,0,8,0V368.46h12a4,4,0,0,0,3.764-5.355l-16-44.459a4,4,0,0,0-7.528,0Z"/></g></svg>
